#!OML:ASF E:/inclinewalkrobotboard/Project1/Captureday1/Session1/subject1.ASF
:FULLY-SPECIFIED
:DEGREES
51
root 0 0 0 -2.4962522191700045 -6.071752636453726 -6.555947822900189
lowerback 9.317781585431717 2.769859985197327 5.140369117783883
upperback 0.7383741354921458 4.252455978705734 1.0434163089973052
thorax -4.279451369348023 2.0038649217430504 -2.3076380310424875
lowerneck -12.97488362171442 -3.50260243544179 -1.8554887242503457
upperneck 14.180949562900203 -4.9067481284455585 3.371302509263227
head 6.460724795743371 -2.242307061388093 0.9119279644409044
rclavicle -2.8527993179597638E-15 -1.7722045087403231E-15
rhumerus -30.213636529031533 -18.20089435507131 -83.36602867527603
rradius 21.8230519143586
rwrist 14.069155429472026
rhand -19.436558638359987 30.741789696712168
rfingers 7.125020000000003
rthumb 6.898083293535462 0.6418872227760204
lclavicle -4.095774013219449E-15 -1.4886494278879716E-15
lhumerus -34.80099854913135 7.718727013560612 79.53920824688761
lradius 17.23770230751463
lwrist -0.7852737039895423
lhand -27.434006982736584 27.649948014458037
lfingers 7.125019999999994
lthumb -0.8829369045850086 57.74337835967326
rfemur -13.340378854135254 4.957665216316242 27.38511186305451
rtibia 41.83640307181358
rfoot -7.985676237366605 -6.5013896613868125
rtoes 5.261826299839769
lfemur -14.710929224134933 -1.9132361505473832 -18.837237903338355
ltibia 34.072534177459616
lfoot -4.609626371045266 -3.020785208516633
ltoes -1.1943059601717643
52
root 0 0 0 -2.7238245688444502 -6.05953906864048 -6.270905591850326
lowerback 9.400705787705014 2.6497182353965494 4.949864389519967
upperback 0.979191846623819 4.072558865728383 1.0853521396556747
thorax -4.063420330048976 1.9192222961520151 -2.1242801262020574
lowerneck -13.08793358211693 -3.4557040844884046 -1.9172486109774405
upperneck 15.086483798595442 -4.823384328440568 3.2569351125051393
head 6.752653166047359 -2.201999776241114 0.8778318160024992
rclavicle -2.8111980489627E-15 -1.848801641905552E-15
rhumerus -30.219621126628432 -18.39456928862279 -83.36265815894838
rradius 21.991779803930385
rwrist 14.325407490572946
rhand -19.561463483129028 30.70141215303964
rfingers 7.125020000000002
rthumb 6.778964757223521 0.5869787589773665
lclavicle -4.07159956801513E-15 -1.5846340682263288E-15
lhumerus -34.73651522541542 7.599885069778496 79.52897479494541
lradius 17.395378605485188
lwrist -0.6371667646313801
lhand -27.48035988880135 27.72362637732357
lfingers 7.125019999999995
lthumb -0.9274060023049948 57.82018940828682
rfemur -13.92259808857525 4.8505794180229715 27.10107588349753
rtibia 42.11758125763674
rfoot -7.7295250503440425 -6.578173936104783
rtoes 5.221528464021469
lfemur -13.296730400807135 -2.5225089479056257 -19.29378047116128
ltibia 33.01169191970413
lfoot -5.498800581064705 -2.533932863046361
ltoes -0.9572574045755609
53
root 0 0 0 -3.116713768713887 -5.997713968346492 -5.742804195695024
lowerback 9.310073218027366 2.4311130686448372 4.560200421717527
upperback 1.2859967802734271 3.738516900269248 1.1419031877667225
thorax -3.677922443206998 1.7629952522708299 -1.7832582966224417
lowerneck -13.339768628614243 -3.33633271615307 -2.0017953441489396
upperneck 17.05873583203421 -4.65675839557651 3.078648903575147
head 7.412006398318723 -2.1096226305227326 0.8214854715393538
rclavicle -2.838858385841887E-15 -1.9430351941742285E-15
rhumerus -30.36983478001239 -18.662693348973427 -83.4548190276804
rradius 22.023699583653446
rwrist 14.697782240359881
rhand -19.69685111820922 30.602138992034554
rfingers 7.125020000000002
rthumb 6.650480074819817 0.471564597120242
lclavicle -4.102537796030806E-15 -1.7051115236049913E-15
lhumerus -34.64363345382905 7.437001081587879 79.51735761871005
lradius 17.606065116398554
lwrist -0.4377237945367711
lhand -27.544082531898248 27.82346252557159
lfingers 7.125019999999997
lthumb -0.988684214430612 57.92413316282765
rfemur -14.754306402986014 4.694847338181933 26.696696887633763
rtibia 42.54785421902169
rfoot -7.3501943058038695 -6.6841322420009615
rtoes 5.17776733056629
lfemur -11.099607712327066 -3.353762452155687 -19.943707188432317
ltibia 31.588201474227738
lfoot -6.829374469459805 -1.8665683332973075
ltoes -0.8510150384642827
54
root 0 0 0 -3.7613684464111956 -5.735650492082167 -4.647464034244448
lowerback 8.592764322259267 1.9850124363171724 3.655612164257642
upperback 1.5592011236680086 3.037247452976405 1.192116150066701
thorax -2.981532491113155 1.4382083825926761 -1.0909645487566397
lowerneck -13.956851030734715 -3.0044987165273866 -2.1007742234326714
upperneck 21.428832879730734 -4.262651279629444 2.787487601169662
head 8.933550531639135 -1.872369083906397 0.7281765771305803
rclavicle -3.0248422205950197E-15 -2.0099658193277203E-15
rhumerus -30.959459429197683 -19.063768579362666 -83.82817803027515
rradius 21.545171318759706
rwrist 15.21329965496816
rhand -19.800697739161485 30.351840920270746
rfingers 7.12502
rthumb 6.5536053694821925 0.2069028532727799
lclavicle -4.28419055069756E-15 -1.826148903231713E-15
lhumerus -34.49855738826631 7.214067047192037 79.51221084155914
lradius 17.870919124835407
lwrist -0.17955337781091085
lhand -27.632411677968804 27.959862948432406
lfingers 7.125019999999999
lthumb -1.0740090935487485 58.065476020681714
rfemur -16.067261446485087 4.4559236600722505 26.091812648024984
rtibia 43.26752955246157
rfoot -6.760668276673426 -6.855475412194102
rtoes 5.127530356548946
lfemur -7.508056885959503 -4.517682686369182 -20.893379354882597
ltibia 29.635261281816263
lfoot -8.938562447157583 -0.9109013929795604
ltoes -1.1776549214791956
55
root 0 0 0 -4.14308087037707 -4.024673152768315 -1.2846433687585308
lowerback 8.11858566330364 0.5323475813633403 0.6121604638460847
upperback 1.8864009580432182 0.7199896483764991 1.1097245432396468
thorax -2.412982398761192 0.3677552263602295 0.8535525953458205
lowerneck -14.835274024405086 -2.228508080428637 -2.35617392169565
upperneck 22.145540968122024 -3.0359007677538212 2.044190469480433
head 9.251367118476507 -1.3435504426964062 0.6427165216639172
rclavicle -3.2679083227114626E-15 -1.8866739297875913E-15
rhumerus -33.99041229562684 -20.040301300439978 -85.79210344069588
rradius 17.9750947909466
rwrist 16.046202187125008
rhand -19.590418699003152 29.307842211018297
rfingers 7.125019999999993
rthumb 6.763975693698237 -0.8228234110819344
lclavicle -4.659475619302387E-15 -1.795459751295017E-15
lhumerus -34.051704262666625 6.746996776595046 79.57762765645384
lradius 18.266584867823997
lwrist 0.2439932537013827
lhand -27.821472171029225 28.212195542149534
lfingers 7.125020000000004
lthumb -1.2593662874653422 58.32387973400384
rfemur -19.599680146901935 3.917670010189966 24.62590992372711
rtibia 44.77889139829041
rfoot -5.522937386238439 -7.423271282628923
rtoes 4.7994492909201165
lfemur 0.4741657643233834 -6.663678892235185 -22.819301641250146
ltibia 26.003749391487172
lfoot -13.495003968527442 0.9242991623567858
ltoes -2.9994426794558073
56
root 0 0 0 -3.2634487554212583 -2.0521427802130097 0.7824194696388349
lowerback 8.74361298902458 -0.43349052641861163 -1.5207036979516062
upperback 2.0405029095217024 -0.8489771807720274 0.8471657365241523
thorax -2.647281743310931 -0.3638086219837674 1.9507699450365905
lowerneck -14.787021275962513 -1.9561978902638228 -2.4821166669295995
upperneck 16.299910926977905 -2.428650395954255 1.7635843460321583
head 7.283560118631518 -1.1758086854119667 0.7069308450934371
rclavicle -2.5175921213925954E-15 -1.1702579050687007E-15
rhumerus -36.01255130947169 -20.943441511704663 -87.01559606298318
rradius 15.260288629553187
rwrist 16.46466695730941
rhand -19.31841070371951 28.481122193173135
rfingers 7.125019999999988
rthumb 7.029374386962632 -1.6105997812037032
lclavicle -3.3343821182552053E-15 -1.103661722188409E-15
lhumerus -33.5973342449096 5.782936088751423 79.53608036162046
lradius 19.646377332861782
lwrist 1.2950072246400222
lhand -28.04586991872914 28.279408711028438
lfingers 7.125020000000007
lthumb -1.4847104016110073 58.39533163852772
rfemur -22.220446608487254 3.5734258932972 23.299837001493202
rtibia 44.723725937757635
rfoot -4.95187149422352 -7.942265106037446
rtoes 4.0674290457335625
lfemur 4.442912482200589 -7.404724832444871 -23.901961675722404
ltibia 24.36389691537617
lfoot -15.563750062386026 1.5501118158569134
ltoes -3.9717457625324855
57
root 0 0 0 -2.397009420664789 -0.9146572753999533 1.2681599303749809
lowerback 9.17673884507668 -0.8991781807189049 -2.2776941359745857
upperback 1.8253763664196372 -1.5408481998542423 1.0044658450954973
thorax -3.114524245381238 -0.6882878981545564 2.5993445409545277
lowerneck -14.846913167000544 -2.0115702767477823 -2.4998457821150617
upperneck 14.725627670644869 -2.325175929003774 1.3749933446296614
head 6.761348018027498 -1.2072323107516145 0.6134271600233143
rclavicle -1.1415698924212734E-15 -4.356969477679518E-16
rhumerus -36.33262474132873 -23.00927707707002 -86.61196324993773
rradius 14.064118717767215
rwrist 16.905867030316653
rhand -19.267529504056405 27.783123733069928
rfingers 7.125019999999984
rthumb 7.078953126796105 -2.2831776132825112
lclavicle -5.993856861942339E-16 -2.620001361752543E-16
lhumerus -33.26344348944609 3.8764229597342226 79.22579164977527
lradius 23.102851299709016
lwrist 3.743926870977107
lhand -28.36911790890686 28.036508758941512
lfingers 7.125020000000008
lthumb -1.8086689429401677 58.16237698377556
rfemur -23.382065865726766 3.404617833673266 22.200892092167905
rtibia 43.33856527799914
rfoot -4.84091345944516 -8.210129702525023
rtoes 3.2583779255569234
lfemur 6.5858981562240535 -7.34898069970191 -24.520388379203517
ltibia 24.081272207098174
lfoot -16.239745269707672 1.3607035095031743
ltoes -4.583041174245494
58
root 0 0 0 -1.8690354464045784 -0.267765792440827 1.3726051280781273
lowerback 9.272887239977644 -1.1643663714117012 -2.682339402435179
upperback 1.4010358026003606 -1.9191808399961758 1.1423951337365486
thorax -3.612647897937661 -0.867399099899872 3.0001612892464165
lowerneck -15.193236543850137 -2.0844129202016575 -2.4111351317832512
upperneck 14.35038118980433 -2.3375377973886398 0.9891905754622438
head 6.7110414014755335 -1.2531895808832474 0.475571903291719
rclavicle 1.0242309911575192E-15 -1.0868747919160447E-15
rhumerus -35.77413529244541 -25.537009582108084 -85.31468657446038
rradius 14.008483513799426
rwrist 17.04549631439294
rhand -19.440424087599844 27.034238450159414
rfingers 7.125019999999983
rthumb 6.911494815624796 -3.0406877604272964
lclavicle 2.5561933194547847E-15 -5.985127094142503E-16
lhumerus -32.6586567739423 1.236870599580311 79.1385496307583
lradius 27.62040211112783
lwrist 7.012755797496888
lhand -28.78697846043492 27.73318347817934
lfingers 7.125020000000008
lthumb -2.2244227803170684 57.868382617039494
rfemur -23.477378290744905 3.4828624418923955 21.93250985107987
rtibia 41.95287622688966
rfoot -5.212236907652046 -8.352740862797226
rtoes 2.747286609927952
lfemur 7.58873281621062 -7.062647814841335 -24.745762307750105
ltibia 24.42012047245327
lfoot -16.320114184257577 0.9867656579339066
ltoes -5.125661828641459
